<svg width="72" height="41" viewBox="0 0 72 41" fill="none" xmlns="http://www.w3.org/2000/svg">
<rect width="72" height="41" rx="8" fill="#20484F"/>
<path d="M17.232 26H22.972V24.95H18.352V15.57H17.232V26ZM28.0295 26.168C28.7295 26.168 29.3642 26 29.9335 25.664C30.5122 25.328 30.9742 24.866 31.3195 24.278C31.6648 23.6807 31.8375 22.9993 31.8375 22.234C31.8375 21.478 31.6695 20.806 31.3335 20.218C31.0068 19.63 30.5542 19.168 29.9755 18.832C29.4062 18.496 28.7575 18.328 28.0295 18.328C27.3015 18.328 26.6482 18.5007 26.0695 18.846C25.5002 19.182 25.0475 19.644 24.7115 20.232C24.3755 20.82 24.2075 21.4873 24.2075 22.234C24.2075 22.99 24.3755 23.6667 24.7115 24.264C25.0568 24.852 25.5188 25.3187 26.0975 25.664C26.6762 26 27.3202 26.168 28.0295 26.168ZM28.0295 25.118C27.5255 25.118 27.0682 24.992 26.6575 24.74C26.2562 24.488 25.9342 24.1427 25.6915 23.704C25.4488 23.2653 25.3275 22.7753 25.3275 22.234C25.3275 21.6927 25.4488 21.2073 25.6915 20.778C25.9342 20.3487 26.2562 20.008 26.6575 19.756C27.0682 19.504 27.5255 19.378 28.0295 19.378C28.5335 19.378 28.9862 19.504 29.3875 19.756C29.7982 20.008 30.1202 20.3487 30.3535 20.778C30.5962 21.2073 30.7175 21.6927 30.7175 22.234C30.7175 22.7753 30.5962 23.2653 30.3535 23.704C30.1202 24.1427 29.7982 24.488 29.3875 24.74C28.9862 24.992 28.5335 25.118 28.0295 25.118ZM37.2453 29.08C37.936 29.08 38.5473 28.9307 39.0793 28.632C39.6207 28.3427 40.0407 27.9413 40.3393 27.428C40.6473 26.924 40.8013 26.35 40.8013 25.706V18.496H39.7513V19.63C39.4527 19.2287 39.07 18.9113 38.6033 18.678C38.1367 18.4447 37.628 18.328 37.0773 18.328C36.368 18.328 35.7333 18.496 35.1733 18.832C34.6227 19.168 34.184 19.6207 33.8573 20.19C33.54 20.7593 33.3813 21.3987 33.3813 22.108C33.3813 22.808 33.54 23.4473 33.8573 24.026C34.184 24.5953 34.6273 25.048 35.1873 25.384C35.7473 25.72 36.3773 25.888 37.0773 25.888C37.628 25.888 38.1413 25.7667 38.6173 25.524C39.0933 25.2813 39.4713 24.9407 39.7513 24.502V25.706C39.7513 26.21 39.6347 26.6347 39.4013 26.98C39.168 27.3253 38.86 27.5867 38.4773 27.764C38.0947 27.9413 37.6747 28.03 37.2173 28.03C36.62 28.03 36.13 27.8993 35.7473 27.638C35.3647 27.3767 35.0987 27.0687 34.9493 26.714L33.9833 27.232C34.2353 27.7733 34.646 28.2167 35.2153 28.562C35.794 28.9073 36.4707 29.08 37.2453 29.08ZM37.1333 24.838C36.6293 24.838 36.1767 24.7167 35.7753 24.474C35.3833 24.222 35.0707 23.8907 34.8373 23.48C34.6133 23.06 34.5013 22.6027 34.5013 22.108C34.5013 21.604 34.6133 21.1467 34.8373 20.736C35.0707 20.3253 35.388 19.9987 35.7893 19.756C36.1907 19.504 36.6387 19.378 37.1333 19.378C37.6187 19.378 38.0573 19.504 38.4493 19.756C38.8413 19.9987 39.154 20.33 39.3873 20.75C39.63 21.1607 39.7513 21.6133 39.7513 22.108C39.7513 22.6027 39.63 23.06 39.3873 23.48C39.154 23.8907 38.8413 24.222 38.4493 24.474C38.0573 24.7167 37.6187 24.838 37.1333 24.838ZM45.4918 26H46.6118V15.57H45.4918V26ZM48.9198 26H49.9698V21.534C49.9698 20.862 50.1565 20.3347 50.5298 19.952C50.9031 19.5693 51.3745 19.378 51.9438 19.378C52.5225 19.378 52.9891 19.5693 53.3438 19.952C53.7078 20.3253 53.8898 20.8527 53.8898 21.534V26H54.9398V21.128C54.9398 20.596 54.8138 20.12 54.5618 19.7C54.3191 19.2707 53.9831 18.9347 53.5538 18.692C53.1338 18.4493 52.6578 18.328 52.1258 18.328C51.6591 18.328 51.2391 18.426 50.8658 18.622C50.4925 18.818 50.1938 19.084 49.9698 19.42V18.496H48.9198V26Z" fill="white"/>
</svg>
