<svg width="82" height="41" viewBox="0 0 82 41" fill="none" xmlns="http://www.w3.org/2000/svg">
<path d="M0 8C0 3.58172 3.58172 0 8 0H74C78.4183 0 82 3.58172 82 8V33C82 37.4183 78.4183 41 74 41H8C3.58172 41 0 37.4183 0 33V8Z" fill="#B8E4DA"/>
<path d="M20.746 26.168C21.4087 26.168 21.992 26.0467 22.496 25.804C23.0093 25.5613 23.406 25.23 23.686 24.81C23.9753 24.3807 24.12 23.886 24.12 23.326C24.12 22.6353 23.91 22.0613 23.49 21.604C23.07 21.1467 22.4493 20.7967 21.628 20.554L19.976 20.064C19.416 19.896 19.0007 19.644 18.73 19.308C18.4593 18.9627 18.324 18.5753 18.324 18.146C18.324 17.614 18.5107 17.194 18.884 16.886C19.2573 16.5687 19.7427 16.41 20.34 16.41C20.9747 16.41 21.5253 16.5687 21.992 16.886C22.468 17.2033 22.818 17.67 23.042 18.286L24.022 17.894C23.8727 17.4367 23.6253 17.0213 23.28 16.648C22.9347 16.2747 22.51 15.976 22.006 15.752C21.5113 15.5187 20.9513 15.402 20.326 15.402C19.7287 15.402 19.192 15.5233 18.716 15.766C18.2493 16.0087 17.8807 16.3447 17.61 16.774C17.3393 17.194 17.204 17.6793 17.204 18.23C17.204 18.874 17.4 19.448 17.792 19.952C18.1933 20.456 18.7627 20.8153 19.5 21.03L21.376 21.59C21.8987 21.7393 22.3 21.954 22.58 22.234C22.86 22.514 23 22.9107 23 23.424C23 23.9467 22.79 24.3667 22.37 24.684C21.9593 25.0013 21.418 25.16 20.746 25.16C20.0367 25.16 19.4253 24.978 18.912 24.614C18.3987 24.2407 18.0207 23.6993 17.778 22.99L16.77 23.368C16.9287 23.8813 17.1947 24.3527 17.568 24.782C17.9413 25.202 18.3987 25.538 18.94 25.79C19.4813 26.042 20.0833 26.168 20.746 26.168ZM26.1288 17.11H27.1788V15.57H26.1288V17.11ZM26.1288 26H27.1788V18.496H26.1288V26ZM32.884 29.08C33.5747 29.08 34.186 28.9307 34.718 28.632C35.2593 28.3427 35.6793 27.9413 35.978 27.428C36.286 26.924 36.44 26.35 36.44 25.706V18.496H35.39V19.63C35.0913 19.2287 34.7087 18.9113 34.242 18.678C33.7753 18.4447 33.2667 18.328 32.716 18.328C32.0067 18.328 31.372 18.496 30.812 18.832C30.2613 19.168 29.8227 19.6207 29.496 20.19C29.1787 20.7593 29.02 21.3987 29.02 22.108C29.02 22.808 29.1787 23.4473 29.496 24.026C29.8227 24.5953 30.266 25.048 30.826 25.384C31.386 25.72 32.016 25.888 32.716 25.888C33.2667 25.888 33.78 25.7667 34.256 25.524C34.732 25.2813 35.11 24.9407 35.39 24.502V25.706C35.39 26.21 35.2733 26.6347 35.04 26.98C34.8067 27.3253 34.4987 27.5867 34.116 27.764C33.7333 27.9413 33.3133 28.03 32.856 28.03C32.2587 28.03 31.7687 27.8993 31.386 27.638C31.0033 27.3767 30.7373 27.0687 30.588 26.714L29.622 27.232C29.874 27.7733 30.2847 28.2167 30.854 28.562C31.4327 28.9073 32.1093 29.08 32.884 29.08ZM32.772 24.838C32.268 24.838 31.8153 24.7167 31.414 24.474C31.022 24.222 30.7093 23.8907 30.476 23.48C30.252 23.06 30.14 22.6027 30.14 22.108C30.14 21.604 30.252 21.1467 30.476 20.736C30.7093 20.3253 31.0267 19.9987 31.428 19.756C31.8293 19.504 32.2773 19.378 32.772 19.378C33.2573 19.378 33.696 19.504 34.088 19.756C34.48 19.9987 34.7927 20.33 35.026 20.75C35.2687 21.1607 35.39 21.6133 35.39 22.108C35.39 22.6027 35.2687 23.06 35.026 23.48C34.7927 23.8907 34.48 24.222 34.088 24.474C33.696 24.7167 33.2573 24.838 32.772 24.838ZM38.5975 26H39.6475V21.534C39.6475 20.862 39.8342 20.3347 40.2075 19.952C40.5809 19.5693 41.0522 19.378 41.6215 19.378C42.2002 19.378 42.6669 19.5693 43.0215 19.952C43.3855 20.3253 43.5675 20.8527 43.5675 21.534V26H44.6175V21.128C44.6175 20.596 44.4915 20.12 44.2395 19.7C43.9969 19.2707 43.6609 18.9347 43.2315 18.692C42.8115 18.4493 42.3355 18.328 41.8035 18.328C41.3369 18.328 40.9169 18.426 40.5435 18.622C40.1702 18.818 39.8715 19.084 39.6475 19.42V18.496H38.5975V26ZM51.6618 26.168C52.1285 26.168 52.5485 26.07 52.9218 25.874C53.2952 25.678 53.5938 25.412 53.8178 25.076V26H54.8678V18.496H53.8178V22.962C53.8178 23.634 53.6312 24.1613 53.2578 24.544C52.8938 24.9267 52.4225 25.118 51.8438 25.118C51.2745 25.118 50.8078 24.936 50.4438 24.572C50.0798 24.1987 49.8978 23.7087 49.8978 23.102V18.496H48.8478V23.228C48.8478 23.8067 48.9692 24.32 49.2118 24.768C49.4638 25.2067 49.8045 25.552 50.2338 25.804C50.6632 26.0467 51.1392 26.168 51.6618 26.168ZM57.0272 28.8H58.0772V24.782C58.3572 25.2207 58.7399 25.5613 59.2252 25.804C59.7106 26.0467 60.2426 26.168 60.8212 26.168C61.5306 26.168 62.1606 26 62.7112 25.664C63.2712 25.3187 63.7099 24.852 64.0272 24.264C64.3539 23.6667 64.5172 22.9947 64.5172 22.248C64.5172 21.492 64.3539 20.82 64.0272 20.232C63.7099 19.644 63.2712 19.182 62.7112 18.846C62.1606 18.5007 61.5306 18.328 60.8212 18.328C60.2332 18.328 59.7059 18.4447 59.2392 18.678C58.7726 18.9113 58.3852 19.2287 58.0772 19.63V18.496H57.0272V28.8ZM60.7652 25.118C60.2612 25.118 59.8039 24.992 59.3932 24.74C58.9919 24.488 58.6699 24.1473 58.4272 23.718C58.1939 23.2793 58.0772 22.7893 58.0772 22.248C58.0772 21.7067 58.1939 21.2213 58.4272 20.792C58.6699 20.3533 58.9919 20.008 59.3932 19.756C59.8039 19.504 60.2612 19.378 60.7652 19.378C61.2692 19.378 61.7172 19.504 62.1092 19.756C62.5106 20.008 62.8232 20.3487 63.0472 20.778C63.2806 21.2073 63.3972 21.6973 63.3972 22.248C63.3972 22.7893 63.2806 23.2793 63.0472 23.718C62.8232 24.1473 62.5106 24.488 62.1092 24.74C61.7172 24.992 61.2692 25.118 60.7652 25.118Z" fill="#20484F"/>
</svg>
