<svg width="129" height="33" viewBox="0 0 129 33" fill="none" xmlns="http://www.w3.org/2000/svg">
<path d="M41.5738 25.3907L43.1662 21.6969C44.8857 22.98 47.1661 23.646 49.4213 23.646C51.0917 23.646 52.1382 23.0051 52.1382 22.0293C52.113 19.3151 42.1637 21.4411 42.0908 14.6218C42.0656 11.1626 45.141 8.49232 49.4993 8.49232C52.0891 8.49232 54.6777 9.13449 56.5255 10.5994L55.0375 14.3672C53.347 13.2885 51.2439 12.5197 49.244 12.5197C47.883 12.5197 46.9887 13.1618 46.9887 13.9796C47.0139 16.6449 57.0361 15.1849 57.1393 21.6969C57.1393 25.2339 54.1432 27.7223 49.8339 27.7223C46.6793 27.7223 43.78 26.9785 41.5738 25.3894V25.3907ZM102.578 20.3637C102.081 21.2475 101.304 21.9417 100.368 22.3374C99.4326 22.7331 98.3918 22.8079 97.4091 22.55C96.4264 22.2921 95.5574 21.7162 94.9384 20.9125C94.3195 20.1089 93.9857 19.1231 93.9894 18.1098C93.9877 17.5077 94.1052 16.9111 94.3351 16.3543C94.565 15.7975 94.9028 15.2915 95.3292 14.865C95.7555 14.4386 96.262 14.1003 96.8197 13.8693C97.3774 13.6384 97.9753 13.5195 98.5792 13.5193C100.294 13.5193 101.783 14.47 102.579 15.8522L106.961 13.4165C105.32 10.4966 102.165 8.49232 98.5792 8.49232C93.2674 8.49232 88.9632 12.8044 88.9632 18.1098C88.9632 23.4152 93.2674 27.7223 98.5792 27.7223C100.291 27.726 101.972 27.2708 103.446 26.4046C104.921 25.5383 106.135 24.2927 106.961 22.7981L102.578 20.3649V20.3637ZM59.3455 0.520389H64.8346V27.3648H59.3455V0.521642V0.520389ZM109.118 0.520389V27.3648H114.601V19.3151L121.117 27.3648H128.143L119.859 17.8013L127.528 8.87988H120.807L114.601 16.2874V0.521642H109.117L109.118 0.520389ZM81.1408 20.4176C80.3459 21.7258 78.7045 22.6953 76.8567 22.6953C76.2534 22.695 75.6561 22.5761 75.0989 22.3454C74.5416 22.1147 74.0355 21.7768 73.6094 21.3509C73.1832 20.925 72.8454 20.4196 72.6153 19.8635C72.3852 19.3073 72.2672 18.7114 72.2682 18.1098C72.2671 17.5079 72.3849 16.9117 72.6149 16.3552C72.8449 15.7987 73.1826 15.2929 73.6087 14.8666C74.0348 14.4403 74.541 14.1019 75.0983 13.8707C75.6556 13.6395 76.2531 13.5201 76.8567 13.5193C78.7045 13.5193 80.3459 14.5428 81.1408 15.876V20.4176ZM81.1408 8.87863V11.061C80.2428 9.54588 78.0114 8.49232 75.6782 8.49232C70.8582 8.49232 67.0647 12.7505 67.0647 18.081C67.0647 23.4165 70.8582 27.7223 75.6782 27.7223C78.0114 27.7223 80.2428 26.6687 81.1408 25.1599V27.341H86.6299V8.87863H81.1408ZM7.65315 20.3875C7.65315 22.2601 6.14 23.7739 4.26712 23.7739C3.82176 23.7736 3.38084 23.6857 2.96959 23.5153C2.55835 23.3448 2.18484 23.0952 1.87045 22.7807C1.55606 22.4661 1.30697 22.0928 1.13742 21.6822C0.967864 21.2716 0.881187 20.8316 0.882345 20.3875C0.881518 19.9438 0.968466 19.5043 1.13821 19.0942C1.30796 18.684 1.55717 18.3113 1.87157 17.9973C2.18598 17.6833 2.5594 17.4343 2.97046 17.2644C3.38152 17.0945 3.82215 17.0072 4.26712 17.0073H7.65315V20.3888V20.3875ZM9.34239 20.3875C9.34157 19.9437 9.42856 19.5041 9.59838 19.0939C9.7682 18.6836 10.0175 18.3109 10.3321 17.9969C10.6466 17.6829 11.0202 17.4338 11.4314 17.264C11.8426 17.0942 12.2834 17.007 12.7284 17.0073C13.1735 17.0072 13.6142 17.0946 14.0254 17.2645C14.4365 17.4345 14.81 17.6836 15.1244 17.9977C15.4388 18.3119 15.688 18.6847 15.8577 19.095C16.0274 19.5053 16.1142 19.945 16.1132 20.3888V28.8498C16.1142 29.2938 16.0274 29.7336 15.8578 30.1441C15.6881 30.5547 15.439 30.9278 15.1246 31.2422C14.8103 31.5566 14.4368 31.8061 14.0257 31.9765C13.6145 32.1468 13.1737 32.2347 12.7284 32.235C12.283 32.2349 11.8419 32.1471 11.4305 31.9767C11.0191 31.8064 10.6455 31.5568 10.3309 31.2422C10.0164 30.9276 9.76721 30.5543 9.59758 30.1436C9.42795 29.7328 9.34124 29.2928 9.34239 28.8486V20.3888V20.3875ZM12.7284 6.80286C12.283 6.8027 11.8419 6.71493 11.4305 6.54456C11.0191 6.37419 10.6455 6.12458 10.3309 5.81002C10.0164 5.49546 9.76721 5.12213 9.59758 4.7114C9.42795 4.30067 9.34124 3.86062 9.34239 3.41642C9.34157 2.97262 9.42856 2.53301 9.59838 2.12278C9.7682 1.71255 10.0175 1.33977 10.3321 1.02577C10.6466 0.711781 11.0202 0.462754 11.4314 0.292956C11.8426 0.123157 12.2834 0.0359251 12.7284 0.0362558C13.1734 0.0360901 13.614 0.123442 14.0251 0.293315C14.4361 0.463187 14.8096 0.712243 15.124 1.02622C15.4384 1.3402 15.6876 1.71293 15.8573 2.12307C16.0271 2.53322 16.114 2.97273 16.1132 3.41642V6.80286H12.7284ZM12.7284 8.52242C13.1734 8.52226 13.614 8.60961 14.0251 8.77948C14.4361 8.94936 14.8096 9.19841 15.124 9.51239C15.4384 9.82636 15.6876 10.1991 15.8573 10.6092C16.0271 11.0194 16.114 11.4589 16.1132 11.9026C16.1132 13.7739 14.6 15.289 12.7284 15.289H4.24322C3.79776 15.2889 3.3567 15.2011 2.94531 15.0307C2.53392 14.8604 2.16026 14.6108 1.84574 14.2962C1.53122 13.9816 1.28201 13.6083 1.11238 13.1976C0.942749 12.7868 0.856031 12.3468 0.857189 11.9026C0.856362 11.4588 0.943351 11.0192 1.11318 10.609C1.283 10.1987 1.53232 9.82594 1.84686 9.51194C2.1614 9.19795 2.53497 8.94892 2.94618 8.77912C3.35739 8.60933 3.79815 8.52209 4.24322 8.52242H12.7284ZM26.2939 11.9026C26.2931 11.4589 26.3801 11.0194 26.5498 10.6092C26.7195 10.1991 26.9688 9.82636 27.2832 9.51239C27.5976 9.19841 27.971 8.94936 28.382 8.77948C28.7931 8.60961 29.2337 8.52226 29.6787 8.52242C30.1238 8.52209 30.5645 8.60933 30.9757 8.77912C31.387 8.94892 31.7605 9.19795 32.0751 9.51194C32.3896 9.82594 32.6389 10.1987 32.8087 10.609C32.9786 11.0192 33.0656 11.4588 33.0647 11.9026C33.0647 13.7739 31.5516 15.289 29.6787 15.289H26.2939V11.9026ZM24.6034 11.9026C24.6034 13.7739 23.0903 15.289 21.2187 15.289C20.7732 15.2889 20.3321 15.2011 19.9207 15.0307C19.5094 14.8604 19.1357 14.6108 18.8212 14.2962C18.5067 13.9816 18.2574 13.6083 18.0878 13.1976C17.9182 12.7868 17.8315 12.3468 17.8326 11.9026V3.41642C17.8318 2.97262 17.9188 2.53301 18.0886 2.12278C18.2584 1.71255 18.5078 1.33977 18.8223 1.02577C19.1368 0.711781 19.5104 0.462754 19.9216 0.292956C20.3328 0.123157 20.7736 0.0359251 21.2187 0.0362558C21.6636 0.0360901 22.1043 0.123442 22.5153 0.293315C22.9264 0.463187 23.2998 0.712243 23.6142 1.02622C23.9286 1.3402 24.1778 1.71293 24.3476 2.12307C24.5173 2.53322 24.6043 2.97273 24.6034 3.41642V11.9026ZM21.2187 25.4684C21.6637 25.4683 22.1045 25.5557 22.5156 25.7256C22.9268 25.8956 23.3002 26.1447 23.6147 26.4588C23.9291 26.7729 24.1783 27.1458 24.3479 27.5561C24.5176 27.9664 24.6044 28.406 24.6034 28.8498C24.6044 29.2938 24.5176 29.7336 24.348 30.1441C24.1784 30.5547 23.9292 30.9278 23.6149 31.2422C23.3005 31.5566 22.9271 31.8061 22.5159 31.9765C22.1047 32.1468 21.6639 32.2347 21.2187 32.235C20.7732 32.2349 20.3321 32.1471 19.9207 31.9767C19.5094 31.8064 19.1357 31.5568 18.8212 31.2422C18.5067 30.9276 18.2574 30.5543 18.0878 30.1436C17.9182 29.7328 17.8315 29.2928 17.8326 28.8486V25.4684H21.2187ZM21.2187 23.7739C20.7732 23.7738 20.3321 23.686 19.9207 23.5156C19.5094 23.3453 19.1357 23.0957 18.8212 22.7811C18.5067 22.4665 18.2574 22.0932 18.0878 21.6825C17.9182 21.2718 17.8315 20.8317 17.8326 20.3875C17.8318 19.9437 17.9188 19.5041 18.0886 19.0939C18.2584 18.6836 18.5078 18.3109 18.8223 17.9969C19.1368 17.6829 19.5104 17.4338 19.9216 17.264C20.3328 17.0942 20.7736 17.007 21.2187 17.0073H29.7039C30.1489 17.0072 30.5897 17.0946 31.0008 17.2645C31.412 17.4345 31.7854 17.6836 32.0999 17.9977C32.4143 18.3119 32.6635 18.6847 32.8331 19.095C33.0028 19.5053 33.0896 19.945 33.0886 20.3888C33.0896 20.8327 33.0028 21.2726 32.8332 21.6831C32.6636 22.0936 32.4145 22.4667 32.1001 22.7811C31.7857 23.0955 31.4123 23.345 31.0011 23.5154C30.5899 23.6858 30.1491 23.7736 29.7039 23.7739H21.2187Z" fill="#20484F"/>
</svg>
