<svg width="144" height="25" viewBox="0 0 144 25" fill="none" xmlns="http://www.w3.org/2000/svg">
<path d="M130.331 2.05148H143.284V4.78917H140.734C139.653 4.78917 138.758 5.1641 138.032 5.91565L129.368 15.1589V19.6362C129.368 20.3877 129.74 20.7626 130.5 20.7626H133.709V23.5003H118.086V20.7626H121.312C122.072 20.7626 122.427 20.3877 122.427 19.6362V15.4494L113.543 5.91565C112.817 5.1641 111.922 4.78917 110.841 4.78917H108.308V2.05148H124.217V4.78917H122.629C122.258 4.78917 122.005 4.92259 121.886 5.19112C121.785 5.45965 121.819 5.70116 122.021 5.91565L127.274 11.5194L132.526 5.91565C132.712 5.70116 132.763 5.45965 132.645 5.19112C132.543 4.92259 132.29 4.78917 131.901 4.78917H130.331V2.05148ZM101.738 23.5003H97.313L79.6997 8.42871V19.6362C79.6997 20.3877 80.0763 20.7626 80.8245 20.7626H84.0485V23.5003H70.8752V20.7626H74.0959C74.8475 20.7626 75.2224 20.3877 75.2224 19.6362V5.91565C75.2224 5.1641 74.8475 4.78917 74.0959 4.78917H70.8752V2.05148H81.9189L97.2455 15.1589V5.91565C97.2455 5.1641 96.8739 4.78917 96.1308 4.78917H92.905V2.05148H106.078V4.78917H102.853C102.093 4.78917 101.738 5.1641 101.738 5.91565V23.5003ZM51.4243 0.715576C41.3873 0.715576 34.7415 5.88188 34.7415 12.7759C34.7415 19.6699 41.3873 24.8362 51.4243 24.8362C61.4631 24.8362 68.1088 19.6699 68.1088 12.7759C68.1088 5.88188 61.4631 0.715576 51.4243 0.715576ZM51.4243 3.93121C57.1818 3.93121 60.9919 7.71938 60.9919 12.7759C60.9919 17.8307 57.1818 21.6206 51.4243 21.6206C45.6686 21.6206 41.8568 17.8307 41.8568 12.7759C41.8568 7.71938 45.6686 3.93121 51.4243 3.93121ZM25.7398 1.79646H28.4775V9.04009H25.7398C24.3752 4.54934 17.5909 3.87717 13.3366 3.87717C9.616 3.87717 6.8361 4.85503 6.8361 6.74489C6.8361 8.92862 12.07 8.99111 16.3023 9.56364C21.7523 10.3017 29.7002 10.175 29.7002 17.2987C29.7002 22.9193 22.2353 24.8261 17.5605 24.8362C9.1904 24.8548 6.5929 22.4448 4.6777 22.4448C4.1457 22.4448 3.8721 22.9582 3.8721 23.985H1.13442V15.8564H3.8721C4.90063 20.7559 12.4331 21.8233 15.6082 21.8233C17.8578 21.8233 23.6473 21.3825 23.6473 18.7073C23.6473 16.1722 19.9317 16.304 15.419 15.6605C10.4723 14.9529 0.715576 14.7992 0.715576 8.22098C0.715576 3.14419 6.40374 0.715576 12.786 0.715576C20.1986 0.715576 23.8634 3.12224 24.9612 3.12224C25.4797 3.12224 25.7398 2.64597 25.7398 1.79646Z" fill="#20484F"/>
</svg>
